<svg xmlns="http://www.w3.org/2000/svg" viewBox="0 0 150 150">
<!-- SVG created with Arrow, by QuiverAI (https://quiver.ai) -->
  <style type="text/css">.cls-0 {fill:url(#SVGID_1_);}
.cls-1 {fill:#051525;}</style>
  <linearGradient id="SVGID_1_" x1="118.3" x2="30.53" y1="31.7" y2="122.3" gradientUnits="userSpaceOnUse">
    <stop stop-color="#E9A522" offset="0"/>
    <stop stop-color="#FAD22C" offset=".4785"/>
    <stop stop-color="#E9A522" offset="1"/>
  </linearGradient>
  <path class="cls-0" d="m126.1 113.8c-3.5 9.2-25.2 25.5-42.3 32.3-3.4 1.3-8 3-10.7 3.2-0.7 0.1-1.3-0.5-1.3-1.2l-0.5-2.5c-3.1-0.1-7.7-0.8-9.6-1.3l0.7 3.8c0.2 1-0.6 1.8-1.6 1.5-3.9-1.2-17.5-7.2-22-17-2.4-5.3-11.9-36-14.6-59-2.3-21.3-2-32.4 2-42.7 4-9.8 16.9-30.8 44.9-30.9 19.5-0.5 29.8 4.2 38.8 13.3 8 8.3 11 18.8 12.5 28.1 3.2 19.2 4.3 58.5 4.5 72.4h-0.8z"/>
  <path class="cls-1" d="m122.4 41.4c-1.5-9.3-4.5-19.8-12.5-28.1-8.3-8.6-17.8-13.3-31.2-13.3-2.4-0.1-5-0.1-7.6 0-28 0.1-40.9 21.1-44.9 30.9-4 10.3-4.1 20.3-2 39.9 2.1 18.8 11.3 55.6 14.9 62.2 4.4 8.4 15.8 14.6 21.7 16.6 1 0.3 1.8-0.5 1.6-1.5l-0.7-3.8c1.9 0.5 6.5 1.2 9.6 1.3l0.5 3.1c0.1 0.5 0.6 1 1.2 1 2.3-0.2 6.7-1.5 10.8-3 12.6-4.5 37.7-19.5 43.1-32.4l0.1-0.2c0.1-0.3 0.2-0.6 0.2-0.9 0-10.8-1.1-51.5-4.8-71.8zm2.7 72.3c-4.2 10.2-25.6 23-32.5 26.6-4.3 2.2-12.5 6.2-19.2 7.8-0.3-3.1-5.3-44.4-5.8-60.5 14.3-3.4 28.3-8.3 35.8-12.4 4.1-2.1 9.7-5.8 9.7-5.8v-0.1c0.3-0.3 0-0.1 0-0.1l0.4-0.4c0.1-0.1-0.4 0.1-0.4-0.1 0.2-0.1 0 0 0 0 0.2-0.2 0-0.1 0-0.1s0.3-0.2 0 0h-0.2c0.2-0.1 0.2-0.2 0.2-0.2s-0.2 0 0-0.1l-0.1-7.3c-0.1-1.6-0.6-2.1-1.5-1.6-7.4 3.7-17.5 6.6-30.6 9.7-8.3 1.8-17.8 3.3-27.3 3.6-8.2 0-20.5-1.1-25.5-7.8-1.5-2.2-1.5-1.8-1.3 0.2l0.4 7.6c0.2 6.7 9.7 11.7 17.4 13.7l5.3 1.3c0.5-0.1 10 56.3 10.6 60.3-5.1-1.9-16.5-8.4-19.9-15.9-3.5-7.6-12.3-39.6-14.5-58.5-2.2-22.2-2.5-33.1 2.5-44.1s17.5-27.6 40.5-27.9c16-1 27.8 1.8 38 11.8 9 9 11.8 18.2 13.5 28.5 3.3 19.2 4.3 49.5 4.5 71.8z"/>
  <path class="cls-1" d="m40.4 90.9c-0.3-1-2.9-2.2-2.9-2.2-0.6-0.1-0.6 0.5-0.4 1.4l9 46.4c0 0.4 2.4 2.1 2.4 2.1 0.6 0.4 0.9-0.2 0.4-2l-8.5-45.7z"/>
  <path class="cls-1" d="m45.6 93.6c-0.1-0.6-2.5-1.9-3-2.1-0.5-0.1-0.5 0.5-0.2 1.4l8.5 46.7c0.1 0.8 2.1 1.6 2.5 1.8 0.6 0.2 0.7-0.4 0.5-1.2l-8.3-46.6z"/>
  <path class="cls-1" d="m78.9 92.1 4.1 47.8c0 0.7 0.4 0.6 0.9 0.4l3.6-1.7 0.1-0.4-4-48.1c0-0.5-0.2-0.5-0.7-0.2l-3.4 1.1c-0.4 0.2-0.7 0.4-0.6 1.1z"/>
  <path class="cls-1" d="m86.7 88.7 3.7 47.9c0 0.6 0.5 0.4 1 0.1l3.1-1.6 0.2-0.2-3.7-48.4-3.6 1.4c-0.4 0.2-0.8 0.3-0.7 0.8z"/>
</svg>